<mxfile host="app.diagrams.net" agent="Mozilla/5.0 (Windows NT 10.0; Win64; x64) AppleWebKit/537.36 (KHTML, like Gecko) Chrome/129.0.0.0 Safari/537.36" version="24.7.17">
  <diagram id="C5RBs43oDa-KdzZeNtuy" name="Page-1">
    <mxGraphModel dx="1050" dy="659" grid="1" gridSize="10" guides="1" tooltips="1" connect="1" arrows="1" fold="1" page="1" pageScale="1" pageWidth="827" pageHeight="1169" math="0" shadow="0">
      <root>
        <mxCell id="WIyWlLk6GJQsqaUBKTNV-0" />
        <mxCell id="WIyWlLk6GJQsqaUBKTNV-1" parent="WIyWlLk6GJQsqaUBKTNV-0" />
        <mxCell id="tsmVFa1skI7ZyPZbTmDh-13" style="edgeStyle=orthogonalEdgeStyle;rounded=0;orthogonalLoop=1;jettySize=auto;html=1;entryX=0.5;entryY=0;entryDx=0;entryDy=0;" edge="1" parent="WIyWlLk6GJQsqaUBKTNV-1" source="WIyWlLk6GJQsqaUBKTNV-7" target="tsmVFa1skI7ZyPZbTmDh-12">
          <mxGeometry relative="1" as="geometry" />
        </mxCell>
        <mxCell id="WIyWlLk6GJQsqaUBKTNV-7" value="Data Collection" style="rounded=1;whiteSpace=wrap;html=1;fontSize=14;glass=0;strokeWidth=1;shadow=0;" parent="WIyWlLk6GJQsqaUBKTNV-1" vertex="1">
          <mxGeometry x="341" y="170" width="146" height="50" as="geometry" />
        </mxCell>
        <mxCell id="tsmVFa1skI7ZyPZbTmDh-5" style="edgeStyle=orthogonalEdgeStyle;rounded=0;orthogonalLoop=1;jettySize=auto;html=1;" edge="1" parent="WIyWlLk6GJQsqaUBKTNV-1" source="tsmVFa1skI7ZyPZbTmDh-0" target="WIyWlLk6GJQsqaUBKTNV-7">
          <mxGeometry relative="1" as="geometry" />
        </mxCell>
        <mxCell id="tsmVFa1skI7ZyPZbTmDh-0" value="Start" style="ellipse;whiteSpace=wrap;html=1;fontSize=14;fontStyle=0" vertex="1" parent="WIyWlLk6GJQsqaUBKTNV-1">
          <mxGeometry x="354" y="30" width="120" height="80" as="geometry" />
        </mxCell>
        <mxCell id="tsmVFa1skI7ZyPZbTmDh-45" value="" style="edgeStyle=orthogonalEdgeStyle;rounded=0;orthogonalLoop=1;jettySize=auto;html=1;" edge="1" parent="WIyWlLk6GJQsqaUBKTNV-1" source="tsmVFa1skI7ZyPZbTmDh-11" target="tsmVFa1skI7ZyPZbTmDh-34">
          <mxGeometry relative="1" as="geometry" />
        </mxCell>
        <mxCell id="tsmVFa1skI7ZyPZbTmDh-11" value="Model Selection" style="rounded=1;whiteSpace=wrap;html=1;fontSize=14;glass=0;strokeWidth=1;shadow=0;" vertex="1" parent="WIyWlLk6GJQsqaUBKTNV-1">
          <mxGeometry x="316" y="850" width="171" height="70" as="geometry" />
        </mxCell>
        <mxCell id="tsmVFa1skI7ZyPZbTmDh-76" value="" style="edgeStyle=none;curved=1;rounded=0;orthogonalLoop=1;jettySize=auto;html=1;fontSize=12;startSize=8;endSize=8;" edge="1" parent="WIyWlLk6GJQsqaUBKTNV-1" source="tsmVFa1skI7ZyPZbTmDh-12" target="tsmVFa1skI7ZyPZbTmDh-73">
          <mxGeometry relative="1" as="geometry" />
        </mxCell>
        <mxCell id="tsmVFa1skI7ZyPZbTmDh-12" value="Data Preprocessing" style="rounded=1;whiteSpace=wrap;html=1;fontSize=14;glass=0;strokeWidth=1;shadow=0;" vertex="1" parent="WIyWlLk6GJQsqaUBKTNV-1">
          <mxGeometry x="341" y="260" width="146" height="60" as="geometry" />
        </mxCell>
        <mxCell id="tsmVFa1skI7ZyPZbTmDh-23" value="End" style="ellipse;whiteSpace=wrap;html=1;fontSize=14;" vertex="1" parent="WIyWlLk6GJQsqaUBKTNV-1">
          <mxGeometry x="341.5" y="1890" width="120" height="80" as="geometry" />
        </mxCell>
        <mxCell id="tsmVFa1skI7ZyPZbTmDh-42" value="" style="edgeStyle=orthogonalEdgeStyle;rounded=0;orthogonalLoop=1;jettySize=auto;html=1;" edge="1" parent="WIyWlLk6GJQsqaUBKTNV-1" source="tsmVFa1skI7ZyPZbTmDh-29" target="tsmVFa1skI7ZyPZbTmDh-31">
          <mxGeometry relative="1" as="geometry" />
        </mxCell>
        <mxCell id="tsmVFa1skI7ZyPZbTmDh-29" value="Handling Imbalanced Data with SMOTE" style="rounded=1;whiteSpace=wrap;html=1;fontSize=14;glass=0;strokeWidth=1;shadow=0;" vertex="1" parent="WIyWlLk6GJQsqaUBKTNV-1">
          <mxGeometry x="308.5" y="560" width="179" height="80" as="geometry" />
        </mxCell>
        <mxCell id="tsmVFa1skI7ZyPZbTmDh-43" value="" style="edgeStyle=orthogonalEdgeStyle;rounded=0;orthogonalLoop=1;jettySize=auto;html=1;" edge="1" parent="WIyWlLk6GJQsqaUBKTNV-1" source="tsmVFa1skI7ZyPZbTmDh-31" target="tsmVFa1skI7ZyPZbTmDh-11">
          <mxGeometry relative="1" as="geometry" />
        </mxCell>
        <mxCell id="tsmVFa1skI7ZyPZbTmDh-31" value="&lt;span style=&quot;text-align: left; font-size: 14px;&quot;&gt;Feature Engineering&lt;/span&gt;" style="rounded=1;whiteSpace=wrap;html=1;fontSize=14;glass=0;strokeWidth=1;shadow=0;" vertex="1" parent="WIyWlLk6GJQsqaUBKTNV-1">
          <mxGeometry x="315" y="700" width="170" height="70" as="geometry" />
        </mxCell>
        <mxCell id="tsmVFa1skI7ZyPZbTmDh-46" value="" style="edgeStyle=orthogonalEdgeStyle;rounded=0;orthogonalLoop=1;jettySize=auto;html=1;" edge="1" parent="WIyWlLk6GJQsqaUBKTNV-1" source="tsmVFa1skI7ZyPZbTmDh-53" target="tsmVFa1skI7ZyPZbTmDh-35">
          <mxGeometry relative="1" as="geometry" />
        </mxCell>
        <mxCell id="tsmVFa1skI7ZyPZbTmDh-34" value="Model Training &amp;amp; Cross-Validation" style="rounded=1;whiteSpace=wrap;html=1;fontSize=14;" vertex="1" parent="WIyWlLk6GJQsqaUBKTNV-1">
          <mxGeometry x="315.5" y="970" width="172" height="70" as="geometry" />
        </mxCell>
        <mxCell id="tsmVFa1skI7ZyPZbTmDh-47" value="" style="edgeStyle=orthogonalEdgeStyle;rounded=0;orthogonalLoop=1;jettySize=auto;html=1;" edge="1" parent="WIyWlLk6GJQsqaUBKTNV-1" source="tsmVFa1skI7ZyPZbTmDh-35" target="tsmVFa1skI7ZyPZbTmDh-36">
          <mxGeometry relative="1" as="geometry" />
        </mxCell>
        <mxCell id="tsmVFa1skI7ZyPZbTmDh-35" value="Model Evaluation" style="rounded=1;whiteSpace=wrap;html=1;fontSize=14;labelBackgroundColor=default;" vertex="1" parent="WIyWlLk6GJQsqaUBKTNV-1">
          <mxGeometry x="316" y="1300" width="170.5" height="70" as="geometry" />
        </mxCell>
        <mxCell id="tsmVFa1skI7ZyPZbTmDh-48" value="" style="edgeStyle=orthogonalEdgeStyle;rounded=0;orthogonalLoop=1;jettySize=auto;html=1;" edge="1" parent="WIyWlLk6GJQsqaUBKTNV-1" source="tsmVFa1skI7ZyPZbTmDh-36" target="tsmVFa1skI7ZyPZbTmDh-37">
          <mxGeometry relative="1" as="geometry" />
        </mxCell>
        <mxCell id="tsmVFa1skI7ZyPZbTmDh-36" value="Hyperparameter Tuning" style="rounded=1;whiteSpace=wrap;html=1;fontSize=14;" vertex="1" parent="WIyWlLk6GJQsqaUBKTNV-1">
          <mxGeometry x="315" y="1470" width="172" height="70" as="geometry" />
        </mxCell>
        <mxCell id="tsmVFa1skI7ZyPZbTmDh-49" value="" style="edgeStyle=orthogonalEdgeStyle;rounded=0;orthogonalLoop=1;jettySize=auto;html=1;" edge="1" parent="WIyWlLk6GJQsqaUBKTNV-1" source="tsmVFa1skI7ZyPZbTmDh-37" target="tsmVFa1skI7ZyPZbTmDh-38">
          <mxGeometry relative="1" as="geometry" />
        </mxCell>
        <mxCell id="tsmVFa1skI7ZyPZbTmDh-37" value="Final Model Selection" style="rounded=1;whiteSpace=wrap;html=1;fontSize=14;" vertex="1" parent="WIyWlLk6GJQsqaUBKTNV-1">
          <mxGeometry x="317" y="1600" width="169" height="70" as="geometry" />
        </mxCell>
        <mxCell id="tsmVFa1skI7ZyPZbTmDh-50" value="" style="edgeStyle=orthogonalEdgeStyle;rounded=0;orthogonalLoop=1;jettySize=auto;html=1;" edge="1" parent="WIyWlLk6GJQsqaUBKTNV-1" source="tsmVFa1skI7ZyPZbTmDh-38" target="tsmVFa1skI7ZyPZbTmDh-23">
          <mxGeometry relative="1" as="geometry" />
        </mxCell>
        <mxCell id="tsmVFa1skI7ZyPZbTmDh-38" value="Results Analysis" style="rounded=1;whiteSpace=wrap;html=1;fontSize=14;" vertex="1" parent="WIyWlLk6GJQsqaUBKTNV-1">
          <mxGeometry x="316.5" y="1753.5" width="170" height="60" as="geometry" />
        </mxCell>
        <mxCell id="tsmVFa1skI7ZyPZbTmDh-51" value="XGBoost" style="rounded=1;whiteSpace=wrap;html=1;" vertex="1" parent="WIyWlLk6GJQsqaUBKTNV-1">
          <mxGeometry x="60" y="1140" width="120" height="60" as="geometry" />
        </mxCell>
        <mxCell id="tsmVFa1skI7ZyPZbTmDh-52" value="Decision Tree" style="rounded=1;whiteSpace=wrap;html=1;" vertex="1" parent="WIyWlLk6GJQsqaUBKTNV-1">
          <mxGeometry x="620" y="1150" width="120" height="60" as="geometry" />
        </mxCell>
        <mxCell id="tsmVFa1skI7ZyPZbTmDh-54" value="" style="edgeStyle=orthogonalEdgeStyle;rounded=0;orthogonalLoop=1;jettySize=auto;html=1;" edge="1" parent="WIyWlLk6GJQsqaUBKTNV-1" source="tsmVFa1skI7ZyPZbTmDh-34" target="tsmVFa1skI7ZyPZbTmDh-53">
          <mxGeometry relative="1" as="geometry">
            <mxPoint x="414" y="800" as="sourcePoint" />
            <mxPoint x="414" y="960" as="targetPoint" />
          </mxGeometry>
        </mxCell>
        <mxCell id="tsmVFa1skI7ZyPZbTmDh-53" value="Random Forest" style="rounded=1;whiteSpace=wrap;html=1;" vertex="1" parent="WIyWlLk6GJQsqaUBKTNV-1">
          <mxGeometry x="341.5" y="1150" width="120" height="60" as="geometry" />
        </mxCell>
        <mxCell id="tsmVFa1skI7ZyPZbTmDh-69" value="" style="edgeStyle=none;curved=1;rounded=0;orthogonalLoop=1;jettySize=auto;html=1;fontSize=12;startSize=8;endSize=8;" edge="1" parent="WIyWlLk6GJQsqaUBKTNV-1" source="tsmVFa1skI7ZyPZbTmDh-55" target="tsmVFa1skI7ZyPZbTmDh-56">
          <mxGeometry relative="1" as="geometry" />
        </mxCell>
        <mxCell id="tsmVFa1skI7ZyPZbTmDh-55" value="Remove Target Column" style="rounded=1;whiteSpace=wrap;html=1;" vertex="1" parent="WIyWlLk6GJQsqaUBKTNV-1">
          <mxGeometry x="20" y="460" width="120" height="60" as="geometry" />
        </mxCell>
        <mxCell id="tsmVFa1skI7ZyPZbTmDh-70" value="" style="edgeStyle=none;curved=1;rounded=0;orthogonalLoop=1;jettySize=auto;html=1;fontSize=12;startSize=8;endSize=8;" edge="1" parent="WIyWlLk6GJQsqaUBKTNV-1" source="tsmVFa1skI7ZyPZbTmDh-56" target="tsmVFa1skI7ZyPZbTmDh-57">
          <mxGeometry relative="1" as="geometry" />
        </mxCell>
        <mxCell id="tsmVFa1skI7ZyPZbTmDh-56" value="Z-Score Outlier Removal" style="rounded=1;whiteSpace=wrap;html=1;" vertex="1" parent="WIyWlLk6GJQsqaUBKTNV-1">
          <mxGeometry x="180" y="460" width="120" height="60" as="geometry" />
        </mxCell>
        <mxCell id="tsmVFa1skI7ZyPZbTmDh-71" value="" style="edgeStyle=none;curved=1;rounded=0;orthogonalLoop=1;jettySize=auto;html=1;fontSize=12;startSize=8;endSize=8;" edge="1" parent="WIyWlLk6GJQsqaUBKTNV-1" source="tsmVFa1skI7ZyPZbTmDh-57" target="tsmVFa1skI7ZyPZbTmDh-58">
          <mxGeometry relative="1" as="geometry" />
        </mxCell>
        <mxCell id="tsmVFa1skI7ZyPZbTmDh-57" value="Feature and Target Separation" style="rounded=1;whiteSpace=wrap;html=1;" vertex="1" parent="WIyWlLk6GJQsqaUBKTNV-1">
          <mxGeometry x="354" y="460" width="120" height="60" as="geometry" />
        </mxCell>
        <mxCell id="tsmVFa1skI7ZyPZbTmDh-72" value="" style="edgeStyle=none;curved=1;rounded=0;orthogonalLoop=1;jettySize=auto;html=1;fontSize=12;startSize=8;endSize=8;" edge="1" parent="WIyWlLk6GJQsqaUBKTNV-1" source="tsmVFa1skI7ZyPZbTmDh-58" target="tsmVFa1skI7ZyPZbTmDh-59">
          <mxGeometry relative="1" as="geometry" />
        </mxCell>
        <mxCell id="tsmVFa1skI7ZyPZbTmDh-58" value="Apply SMOTE for Balancing" style="rounded=1;whiteSpace=wrap;html=1;" vertex="1" parent="WIyWlLk6GJQsqaUBKTNV-1">
          <mxGeometry x="530" y="460" width="120" height="60" as="geometry" />
        </mxCell>
        <mxCell id="tsmVFa1skI7ZyPZbTmDh-59" value="Drop Unnecessary Columns" style="rounded=1;whiteSpace=wrap;html=1;" vertex="1" parent="WIyWlLk6GJQsqaUBKTNV-1">
          <mxGeometry x="690" y="460" width="120" height="60" as="geometry" />
        </mxCell>
        <mxCell id="tsmVFa1skI7ZyPZbTmDh-77" value="" style="edgeStyle=none;curved=1;rounded=0;orthogonalLoop=1;jettySize=auto;html=1;fontSize=12;startSize=8;endSize=8;" edge="1" parent="WIyWlLk6GJQsqaUBKTNV-1" source="tsmVFa1skI7ZyPZbTmDh-73" target="tsmVFa1skI7ZyPZbTmDh-55">
          <mxGeometry relative="1" as="geometry" />
        </mxCell>
        <mxCell id="tsmVFa1skI7ZyPZbTmDh-73" value="" style="whiteSpace=wrap;html=1;rounded=1;" vertex="1" parent="WIyWlLk6GJQsqaUBKTNV-1">
          <mxGeometry x="80" y="260" width="120" height="60" as="geometry" />
        </mxCell>
      </root>
    </mxGraphModel>
  </diagram>
</mxfile>
